<svg id="visual" viewBox="0 0 960 540" width="960" height="540" xmlns="http://www.w3.org/2000/svg" xmlns:xlink="http://www.w3.org/1999/xlink" version="1.1"><rect x="0" y="0" width="960" height="540" fill="#ffffff"></rect><path d="M0 171L51 171L51 163L101 163L101 218L152 218L152 214L202 214L202 215L253 215L253 198L303 198L303 171L354 171L354 218L404 218L404 165L455 165L455 205L505 205L505 210L556 210L556 180L606 180L606 205L657 205L657 249L707 249L707 233L758 233L758 174L808 174L808 214L859 214L859 202L909 202L909 247L960 247L960 169L960 541L960 541L909 541L909 541L859 541L859 541L808 541L808 541L758 541L758 541L707 541L707 541L657 541L657 541L606 541L606 541L556 541L556 541L505 541L505 541L455 541L455 541L404 541L404 541L354 541L354 541L303 541L303 541L253 541L253 541L202 541L202 541L152 541L152 541L101 541L101 541L51 541L51 541L0 541Z" fill="#2eb9eb"></path><path d="M0 231L51 231L51 215L101 215L101 248L152 248L152 207L202 207L202 264L253 264L253 230L303 230L303 252L354 252L354 195L404 195L404 277L455 277L455 276L505 276L505 239L556 239L556 282L606 282L606 209L657 209L657 215L707 215L707 232L758 232L758 228L808 228L808 213L859 213L859 270L909 270L909 247L960 247L960 212L960 541L960 541L909 541L909 541L859 541L859 541L808 541L808 541L758 541L758 541L707 541L707 541L657 541L657 541L606 541L606 541L556 541L556 541L505 541L505 541L455 541L455 541L404 541L404 541L354 541L354 541L303 541L303 541L253 541L253 541L202 541L202 541L152 541L152 541L101 541L101 541L51 541L51 541L0 541Z" fill="#00c4e8"></path><path d="M0 250L51 250L51 301L101 301L101 276L152 276L152 316L202 316L202 255L253 255L253 239L303 239L303 296L354 296L354 309L404 309L404 302L455 302L455 307L505 307L505 257L556 257L556 302L606 302L606 239L657 239L657 239L707 239L707 273L758 273L758 268L808 268L808 296L859 296L859 298L909 298L909 252L960 252L960 265L960 541L960 541L909 541L909 541L859 541L859 541L808 541L808 541L758 541L758 541L707 541L707 541L657 541L657 541L606 541L606 541L556 541L556 541L505 541L505 541L455 541L455 541L404 541L404 541L354 541L354 541L303 541L303 541L253 541L253 541L202 541L202 541L152 541L152 541L101 541L101 541L51 541L51 541L0 541Z" fill="#00ceda"></path><path d="M0 329L51 329L51 331L101 331L101 307L152 307L152 330L202 330L202 348L253 348L253 313L303 313L303 292L354 292L354 311L404 311L404 291L455 291L455 300L505 300L505 344L556 344L556 284L606 284L606 283L657 283L657 315L707 315L707 330L758 330L758 339L808 339L808 285L859 285L859 279L909 279L909 323L960 323L960 281L960 541L960 541L909 541L909 541L859 541L859 541L808 541L808 541L758 541L758 541L707 541L707 541L657 541L657 541L606 541L606 541L556 541L556 541L505 541L505 541L455 541L455 541L404 541L404 541L354 541L354 541L303 541L303 541L253 541L253 541L202 541L202 541L152 541L152 541L101 541L101 541L51 541L51 541L0 541Z" fill="#00d6c2"></path><path d="M0 367L51 367L51 329L101 329L101 349L152 349L152 357L202 357L202 343L253 343L253 334L303 334L303 381L354 381L354 378L404 378L404 361L455 361L455 369L505 369L505 340L556 340L556 318L606 318L606 334L657 334L657 325L707 325L707 370L758 370L758 352L808 352L808 326L859 326L859 376L909 376L909 360L960 360L960 327L960 541L960 541L909 541L909 541L859 541L859 541L808 541L808 541L758 541L758 541L707 541L707 541L657 541L657 541L606 541L606 541L556 541L556 541L505 541L505 541L455 541L455 541L404 541L404 541L354 541L354 541L303 541L303 541L253 541L253 541L202 541L202 541L152 541L152 541L101 541L101 541L51 541L51 541L0 541Z" fill="#00dca3"></path><path d="M0 388L51 388L51 392L101 392L101 407L152 407L152 368L202 368L202 388L253 388L253 394L303 394L303 410L354 410L354 373L404 373L404 384L455 384L455 371L505 371L505 374L556 374L556 373L606 373L606 397L657 397L657 386L707 386L707 358L758 358L758 378L808 378L808 405L859 405L859 371L909 371L909 410L960 410L960 409L960 541L960 541L909 541L909 541L859 541L859 541L808 541L808 541L758 541L758 541L707 541L707 541L657 541L657 541L606 541L606 541L556 541L556 541L505 541L505 541L455 541L455 541L404 541L404 541L354 541L354 541L303 541L303 541L253 541L253 541L202 541L202 541L152 541L152 541L101 541L101 541L51 541L51 541L0 541Z" fill="#61df7f"></path><path d="M0 416L51 416L51 397L101 397L101 412L152 412L152 445L202 445L202 419L253 419L253 438L303 438L303 406L354 406L354 446L404 446L404 432L455 432L455 399L505 399L505 399L556 399L556 436L606 436L606 418L657 418L657 432L707 432L707 398L758 398L758 423L808 423L808 398L859 398L859 444L909 444L909 428L960 428L960 402L960 541L960 541L909 541L909 541L859 541L859 541L808 541L808 541L758 541L758 541L707 541L707 541L657 541L657 541L606 541L606 541L556 541L556 541L505 541L505 541L455 541L455 541L404 541L404 541L354 541L354 541L303 541L303 541L253 541L253 541L202 541L202 541L152 541L152 541L101 541L101 541L51 541L51 541L0 541Z" fill="#97e058"></path><path d="M0 471L51 471L51 453L101 453L101 458L152 458L152 463L202 463L202 439L253 439L253 469L303 469L303 472L354 472L354 476L404 476L404 480L455 480L455 475L505 475L505 470L556 470L556 437L606 437L606 460L657 460L657 452L707 452L707 444L758 444L758 482L808 482L808 459L859 459L859 436L909 436L909 450L960 450L960 455L960 541L960 541L909 541L909 541L859 541L859 541L808 541L808 541L758 541L758 541L707 541L707 541L657 541L657 541L606 541L606 541L556 541L556 541L505 541L505 541L455 541L455 541L404 541L404 541L354 541L354 541L303 541L303 541L253 541L253 541L202 541L202 541L152 541L152 541L101 541L101 541L51 541L51 541L0 541Z" fill="#cadc31"></path><path d="M0 494L51 494L51 486L101 486L101 481L152 481L152 517L202 517L202 501L253 501L253 514L303 514L303 497L354 497L354 494L404 494L404 494L455 494L455 514L505 514L505 497L556 497L556 495L606 495L606 484L657 484L657 490L707 490L707 514L758 514L758 479L808 479L808 478L859 478L859 496L909 496L909 495L960 495L960 495L960 541L960 541L909 541L909 541L859 541L859 541L808 541L808 541L758 541L758 541L707 541L707 541L657 541L657 541L606 541L606 541L556 541L556 541L505 541L505 541L455 541L455 541L404 541L404 541L354 541L354 541L303 541L303 541L253 541L253 541L202 541L202 541L152 541L152 541L101 541L101 541L51 541L51 541L0 541Z" fill="#fdd306"></path></svg>