<?xml version="1.0" standalone="no"?>
<!DOCTYPE svg PUBLIC "-//W3C//DTD SVG 20010904//EN"
 "http://www.w3.org/TR/2001/REC-SVG-20010904/DTD/svg10.dtd">
<svg version="1.0" xmlns="http://www.w3.org/2000/svg"
 width="900.000000pt" height="600.000000pt" viewBox="0 0 900.000000 600.000000"
 preserveAspectRatio="xMidYMid meet">
<metadata>
Created by potrace 1.16, written by Peter Selinger 2001-2019
</metadata>
<g transform="translate(0.000000,600.000000) scale(0.100000,-0.100000)"
fill="#000000" stroke="none">
<path d="M4655 5938 c-165 -31 -478 -91 -695 -133 -615 -118 -1115 -214 -1225
-235 -55 -10 -302 -58 -550 -105 -247 -47 -501 -96 -563 -107 l-112 -22 2
-2335 3 -2335 65 -13 c36 -7 193 -37 350 -67 157 -31 650 -125 1095 -210 446
-85 977 -187 1180 -226 668 -129 746 -143 750 -138 3 3 4 1350 3 2994 l-3
2989 -300 -57z m-1616 -2139 c98 -207 191 -408 206 -447 l28 -72 43 107 c23
60 125 261 226 448 l183 340 294 3 c269 2 293 1 287 -14 -7 -17 -71 -125 -461
-769 -120 -198 -220 -366 -222 -373 -5 -13 64 -130 480 -812 l223 -365 -60 -5
c-34 -3 -158 -7 -276 -9 -118 -1 -231 -4 -252 -6 l-36 -4 -211 394 c-115 217
-219 423 -230 457 -18 60 -20 62 -29 37 -6 -15 -16 -46 -22 -70 -6 -24 -106
-218 -222 -431 l-210 -388 -310 0 c-256 0 -309 2 -305 13 5 14 179 292 526
840 110 176 201 323 201 327 0 8 -246 439 -526 922 -79 136 -144 250 -144 253
0 3 144 4 321 3 l321 -3 177 -376z"/>
<path d="M5200 4967 l0 -343 348 -1 347 0 3 -237 2 -236 -350 0 -350 0 0 -230
0 -230 343 0 343 0 0 -230 0 -230 -343 0 -343 0 0 -230 0 -230 343 0 343 0 -1
-227 0 -228 -343 -3 -342 -2 0 -228 0 -227 342 0 343 0 0 -230 0 -230 -343 -3
-342 -2 0 -340 0 -340 1082 0 1081 0 43 25 c23 14 52 40 63 59 l21 33 0 2184
0 2184 -32 39 c-17 21 -50 47 -72 57 -39 18 -92 19 -1113 19 l-1073 0 0 -343z
m1848 -587 l-3 -230 -460 0 -460 0 0 222 c-1 123 1 226 3 231 2 4 210 7 463 7
l459 0 -2 -230z m2 -920 l0 -230 -463 0 -463 0 2 228 c1 125 2 228 3 230 0 1
208 2 461 2 l460 0 0 -230z m0 -920 l0 -230 -462 2 -463 3 0 228 0 227 462 0
463 0 0 -230z m-2 -923 l2 -237 -463 0 -464 0 2 238 c2 130 3 237 4 237 0 0
207 0 459 0 l457 0 3 -238z"/>
</g>
</svg>
