<?xml version="1.0" standalone="no"?>
<!DOCTYPE svg PUBLIC "-//W3C//DTD SVG 20010904//EN"
 "http://www.w3.org/TR/2001/REC-SVG-20010904/DTD/svg10.dtd">
<svg version="1.0" xmlns="http://www.w3.org/2000/svg"
 width="275.000000pt" height="183.000000pt" viewBox="0 0 275.000000 183.000000"
 preserveAspectRatio="xMidYMid meet">
<metadata>
Created by potrace 1.16, written by Peter Selinger 2001-2019
</metadata>
<g transform="translate(0.000000,183.000000) scale(0.100000,-0.100000)"
fill="#000000" stroke="none">
<path d="M1240 1535 c-205 -50 -367 -213 -415 -417 -42 -180 6 -341 144 -479
103 -103 245 -169 363 -169 l38 0 0 -105 0 -104 81 47 c218 127 383 315 446
507 32 101 36 238 9 330 -84 284 -382 459 -666 390z m305 -340 c21 -20 25 -34
25 -82 l0 -57 75 74 75 74 0 -209 0 -209 -75 74 -75 74 0 -57 c0 -48 -4 -62
-25 -82 -24 -25 -24 -25 -235 -25 -279 0 -260 -17 -260 226 0 242 -21 224 257
224 214 0 214 0 238 -25z"/>
</g>
</svg>
