<?xml version="1.0" standalone="no"?>
<!DOCTYPE svg PUBLIC "-//W3C//DTD SVG 20010904//EN"
 "http://www.w3.org/TR/2001/REC-SVG-20010904/DTD/svg10.dtd">
<svg version="1.0" xmlns="http://www.w3.org/2000/svg"
 width="301.000000pt" height="167.000000pt" viewBox="0 0 301.000000 167.000000"
 preserveAspectRatio="xMidYMid meet">
<metadata>
Created by potrace 1.16, written by Peter Selinger 2001-2019
</metadata>
<g transform="translate(0.000000,167.000000) scale(0.100000,-0.100000)"
fill="#000000" stroke="none">
<path d="M1351 1645 c-316 -60 -570 -298 -652 -610 -29 -110 -29 -289 -1 -396
70 -262 252 -468 502 -568 103 -41 185 -55 320 -53 564 4 952 545 775 1082
-84 253 -299 455 -565 530 -98 28 -277 35 -379 15z m361 -367 c57 -51 122
-111 145 -134 l43 -41 0 -381 0 -381 -26 -20 c-26 -20 -38 -21 -366 -21 -336
0 -370 3 -390 34 -4 6 -8 235 -8 508 l0 497 22 15 c19 13 60 16 250 16 l228 0
102 -92z"/>
<path d="M1190 835 l0 -455 315 0 315 0 0 320 0 320 -120 0 c-115 0 -122 1
-145 25 -24 23 -25 31 -25 135 l0 110 -170 0 -170 0 0 -455z m570 15 l0 -40
-195 0 -195 0 0 40 0 40 195 0 195 0 0 -40z m0 -145 l0 -35 -195 0 -195 0 0
35 0 35 195 0 195 0 0 -35z m0 -145 l0 -40 -195 0 -195 0 0 40 0 40 195 0 195
0 0 -40z"/>
</g>
</svg>
